<!DOCTYPE svg PUBLIC "-//W3C//DTD SVG 1.1//EN" "http://www.w3.org/Graphics/SVG/1.1/DTD/svg11.dtd">
<!-- Uploaded to: SVG Repo, www.svgrepo.com, Transformed by: SVG Repo Mixer Tools -->
<svg width="64px" height="64px" viewBox="0 0 1024 1024" class="icon" version="1.1" xmlns="http://www.w3.org/2000/svg" fill="#b8b1b9" stroke="#b8b1b9">
<g id="SVGRepo_bgCarrier" stroke-width="0"/>
<g id="SVGRepo_tracerCarrier" stroke-linecap="round" stroke-linejoin="round"/>
<g id="SVGRepo_iconCarrier">
<path d="M925.6 869.6H98.4c-22.4 0-40-17.6-40-40V296c0-22.4 17.6-40 40-40h826.4c22.4 0 40 17.6 40 40v533.6c0.8 21.6-17.6 40-39.2 40z" fill="#f4f4f4"/>
<path d="M925.6 877.6H98.4c-26.4 0-48-21.6-48-48V296c0-26.4 21.6-48 48-48h826.4c26.4 0 48 21.6 48 48v533.6c0.8 26.4-20.8 48-47.2 48zM98.4 264c-17.6 0-32 14.4-32 32v533.6c0 17.6 14.4 32 32 32h826.4c17.6 0 32-14.4 32-32V296c0-17.6-14.4-32-32-32H98.4z" fill="#f4f4f46A576D"/>
<path d="M925.6 256H98.4c-22.4 0-40 17.6-40 40v65.6c4 0.8 8.8 0.8 13.6 0.8h880c4.8 0 8.8-0.8 13.6-0.8V296c0-22.4-18.4-40-40-40z" fill="#f4f4f46A576D"/>
<path d="M952 314.4H72c-22.4 0-40-17.6-40-40v-80c0-22.4 17.6-40 40-40h880c22.4 0 40 17.6 40 40v80c0 22.4-17.6 40-40 40z" fill="#f4f4f4"/>
<path d="M632 552H392c-22.4 0-40-17.6-40-40v-26.4c0-22.4 17.6-40 40-40h240c22.4 0 40 17.6 40 40V512c0 22.4-17.6 40-40 40z" fill="#f4f4f4FFFFFF"/>
<path d="M632 560H392c-26.4 0-48-21.6-48-48v-26.4c0-26.4 21.6-48 48-48h240c26.4 0 48 21.6 48 48V512c0 26.4-21.6 48-48 48zM392 453.6c-17.6 0-32 14.4-32 32V512c0 17.6 14.4 32 32 32h240c17.6 0 32-14.4 32-32v-26.4c0-17.6-14.4-32-32-32H392z" fill="#f4f4f46A576D"/>
<path d="M952 322.4H72c-26.4 0-48-21.6-48-48v-80c0-26.4 21.6-48 48-48h880c26.4 0 48 21.6 48 48v80c0 26.4-21.6 48-48 48zM72 162.4c-17.6 0-32 14.4-32 32v80c0 17.6 14.4 32 32 32h880c17.6 0 32-14.4 32-32v-80c0-17.6-14.4-32-32-32H72z" fill="#f4f4f46A576D"/>
</g>
</svg>